<?xml version="1.0" encoding="utf-8"?>
<!-- Generator: Adobe Illustrator 16.0.0, SVG Export Plug-In . SVG Version: 6.00 Build 0)  -->
<!DOCTYPE svg PUBLIC "-//W3C//DTD SVG 1.1//EN" "http://www.w3.org/Graphics/SVG/1.1/DTD/svg11.dtd">
<svg version="1.1" id="Layer_1" xmlns="http://www.w3.org/2000/svg" xmlns:xlink="http://www.w3.org/1999/xlink" x="0px" y="0px"
	 width="321px" height="269px" viewBox="0 0 321 269" enable-background="new 0 0 321 269" xml:space="preserve">
<rect x="104.25" y="33" fill="#17C0D5" width="104.25" height="92.5"/>
<path fill="#FFFFFF" d="M94.799,5.042c40.994-0.211,82.006-0.031,123.004-0.091c9.241-0.228,17.549,8.008,17.627,17.211
	c0.036,40.284,0.014,80.563,0.014,120.847c0.055,5.235-4.575,9.942-9.836,9.854c-41.877-0.008-83.754-0.008-125.63,0
	c-2.447-0.008-4.99,0.21-7.298-0.752c-3.679-1.426-6.174-5.219-6.155-9.149c-0.013-42.666-0.019-85.33,0-127.995
	C86.34,10.193,90.074,5.715,94.799,5.042L94.799,5.042z M143.641,70.156c0.09,2.212,0.015,4.909,0.105,7.115
	c-2.255,0.09-4.533-0.036-6.751,0.433c0.071,2.987,0.103,5.975,0.071,8.963c5.399,4.641,11.212,8.783,16.755,13.244
	c10.178,7.887,20.313,15.816,30.492,23.692c0.949,0.847,2.304,0.521,3.463,0.601c4.1-0.079,8.205,0.132,12.306-0.126
	c-0.041-0.722,0.396-1.672-0.313-2.183c-1.834-1.521-3.75-2.945-5.5-4.563c4.92,0.011,8.207-0.154,12.448-0.457
	c1.502-0.095-0.269-2.239-0.606-2.495c-11.733-9.486-23.605-18.798-35.301-28.333c4.33,0.047,8.996,0.09,12.758-2.381
	c2.375-1.37,3.781-3.812,4.961-6.192l-1.383,0.397c5.09-1.383,8.373-6.36,8.625-11.488c0.146-5.519,0.006-11.043,0.065-16.568
	c0.067-4.034-0.913-8.452-4.081-11.211c-3.061-2.664-7.262-3.583-11.225-3.578c-14.414-0.017-28.831,0.006-43.241-0.005
	c-3.661-0.066-7.479-0.006-10.874,1.539l0,0c-2.754,1.172-5.087,3.409-6.091,6.264c-0.878,1.629-2.952,1.984-4.13,3.354
	c-3.673,3.571-3.835,9.06-3.733,13.845c0.006,11.031-0.005,22.063,0.006,33.094c0.023,1.924-0.18,3.872,0.265,5.771
	c4.822-0.096,9.649,0.048,14.47-0.084c0-2.398,0.018-4.797,0.029-7.189c2.207,0.012,4.413,0.006,6.619-0.036
	c0.072-13.371-0.006-26.734,0.043-40.104c10.748,0.042,21.496-0.054,32.247,0.042c3.75,0.036,7.586,2.585,8.12,6.481
	c0.308,3.787,0.108,7.604,0.108,11.404c-9.775,0.691-19.58,0.42-29.366,0.746L143.641,70.156z"/>
<path fill="#070707" d="M116.194,46.179c1.178-1.371,3.252-1.725,4.13-3.354c-1.01,2.393-1.184,5.026-1.166,7.599
	c0.03,13.73-0.03,27.455,0.035,41.186c2.676-0.006,5.357-0.012,8.038,0.006c-0.012,2.392-0.029,4.791-0.029,7.189
	c-4.821,0.132-9.648-0.012-14.47,0.084c-0.445-1.899-0.241-3.847-0.265-5.771c-0.012-11.032,0-22.063-0.006-33.094
	C112.359,55.239,112.521,49.75,116.194,46.179L116.194,46.179z M137.35,45.729c1.899-1.317,4.28-1.474,6.523-1.455
	c9.611,0.048,19.23-0.037,28.85,0.036c3.696-0.084,7.43,2.398,8.156,6.137c0.512,3.566,0.169,7.184,0.247,10.771
	c0.204,3.955-2.782,7.719-6.757,8.182c0-3.799,0.197-7.617-0.107-11.404c-0.535-3.896-4.371-6.445-8.121-6.481
	c-10.75-0.096-21.499,0-32.247-0.042C134.218,49.196,135.342,46.955,137.35,45.729L137.35,45.729z M136.995,77.704
	c2.218-0.469,4.496-0.343,6.751-0.433c0.029,0.806,0.06,1.611,0.096,2.417c15.601,12.15,31.207,24.281,46.801,36.438
	c1.088,0.961,1.982,1.234,3.627,1.208c1.748,1.617,3.666,3.042,5.5,4.563c0.709,0.511,0.271,1.461,0.313,2.183
	c-4.102,0.258-8.206,0.047-12.307,0.126c-1.158-0.079-2.512,0.246-3.461-0.601c-10.18-7.876-20.313-15.806-30.493-23.692
	c-5.543-4.461-11.355-8.603-16.755-13.244C137.098,83.679,137.066,80.691,136.995,77.704L136.995,77.704z M170.973,78.96
	c-2.656,1.263-2.838,5.687-0.162,7.088c4.33,0.047,8.994,0.09,12.756-2.381c2.375-1.37,3.783-3.812,4.961-6.192l-1.383,0.397
	C181.907,79.532,176.316,78.185,170.973,78.96L170.973,78.96z"/>
<rect x="96.125" y="174.188" fill="#FFFFFF" width="16.25" height="10"/>
<rect x="118" y="174.188" fill="#FFFFFF" width="16.25" height="10"/>
<path fill="#FFFFFF" d="M6.832,177.607c3.541-3.229,8.531-4.129,13.171-4.129c17.241-0.006,34.482-0.031,51.718,0.014
	c5.363,0.027,11.367,1.664,14.422,6.432c3.504,5.338,2.266,11.992,2.5,18.01c-0.266,5.811,0.932,12.078-1.917,17.445
	c-2.267,4.408-7.202,6.77-11.97,7.209c-4.592,0.211-9.203-0.084-13.777,0.24c-3.061,1.088-3.595,5.992-0.896,7.814
	c13.466,10.783,26.95,21.559,40.405,32.359c1.104,0.59,0.865,2.664-0.506,2.688c-5.007,0.086-10.026,0.008-15.041,0.008
	c-0.763,0.072-1.39-0.408-1.966-0.824c-17.614-13.719-35.24-27.424-52.848-41.15c-0.036-3.539-0.121-7.08-0.06-10.627
	c9.673-0.223,19.345-0.42,29.019-0.633c2.825-0.084,5.842,0.158,8.404-1.273c2.874-1.441,4.582-4.629,4.604-7.791
	c0.043-3.559,0.055-7.123-0.012-10.682c-0.078-3.037-1.701-6.049-4.412-7.504c-2.41-1.396-5.285-1.34-7.972-1.311
	c-10.232,0.02-20.458,0-30.69,0.006c-2.765-0.02-5.693,0.766-7.635,2.838c-1.828,1.828-2.531,4.49-2.471,7.021
	c0.012,14.463-0.012,28.928,0.012,43.385c-5.507,0.037-11.02,0-16.526,0.02c-0.012-15.865-0.012-31.729-0.006-47.594
	C2.358,185.25,3.524,180.607,6.832,177.607L6.832,177.607z"/>
<path fill="#FFFFFF" d="M142.34,177.777c3.576-3.398,8.734-4.322,13.502-4.299c17.056-0.006,34.104-0.02,51.16,0.004
	c4.599,0.025,9.527,1,12.989,4.24c3.224,2.992,4.347,7.555,4.335,11.824c0.012,10.016-0.007,20.037,0.006,30.059
	c0.211,5.057-0.908,10.711-5.107,13.982c-4.623,3.68-10.834,3.68-16.442,3.582c-10.315,0-20.639,0-30.952,0
	c0.022-3.49,0.053-6.979,0.09-10.467c8.687-0.09,17.367,0.037,26.053-0.02c2.941,0,6.02-1.045,7.889-3.414
	c1.527-1.846,1.991-4.299,1.948-6.631c-0.022-7.822,0.018-15.643-0.019-23.465c0-2.566-0.964-5.176-2.923-6.883
	c-2.014-1.844-4.834-2.428-7.483-2.387c-10.438-0.006-20.865,0.014-31.303-0.014c-2.729-0.061-5.676,0.176-7.931,1.883
	c-2.326,1.666-3.56,4.539-3.547,7.363c-0.036,14.676,0.006,29.35-0.022,44.02c-5.496,0.029-10.99-0.02-16.484,0.023
	c-0.072-15.877-0.018-31.762-0.03-47.637C138.055,185.309,139.153,180.77,142.34,177.777L142.34,177.777z"/>
<path fill="#FFFFFF" d="M234.131,177.65c3.5-3.26,8.478-4.148,13.104-4.186c17.053-0.006,34.1-0.006,51.147,0
	c4.615,0.008,9.575,0.895,13.11,4.088c3.33,2.994,4.521,7.652,4.49,11.986c-0.013,6.813,0.067,13.629-0.036,20.439
	c0.138,2.043-1.959,3.061-3.727,2.908c-16.25,0.037-32.501,0-48.749,0.02c-0.023-3.492-0.043-6.979-0.008-10.467
	c10.625,0.02,21.254,0.035,31.875-0.014c2.325,0.049,4.209-2.164,4.089-4.424c-0.036-3.324,0.499-6.975-1.396-9.926
	c-1.785-2.963-5.392-4.25-8.723-4.158c-11.013-0.006-22.026-0.014-33.046,0c-2.887-0.006-5.935,0.912-7.863,3.162
	c-1.594,1.82-2.188,4.291-2.141,6.666c-0.006,7.84-0.012,15.678,0,23.518c-0.02,2.453,0.787,4.99,2.598,6.721
	c1.912,1.947,4.73,2.711,7.398,2.684c19.756-0.055,39.51-0.098,59.259-0.148c0.012,3.559,0.022,7.109-0.013,10.67
	c-22.748-0.023-45.496-0.006-68.244-0.02c-4.567-0.021-9.469-0.906-12.979-4.053c-3.28-2.916-4.53-7.469-4.54-11.729
	c-0.021-10.617-0.011-21.232-0.005-31.844C229.719,185.256,230.862,180.645,234.131,177.65L234.131,177.65z"/>
<path fill="#FFFFFF" d="M94.187,197.049c0.036,13.383-0.054,26.771,0.048,40.152c5.495-0.084,10.99,0,16.484-0.035
	c-0.019-13.375,0.012-26.75-0.012-40.121C105.2,197.063,99.693,197.045,94.187,197.049L94.187,197.049z"/>
<path fill="#FFFFFF" d="M116.117,197.098c5.514,0.016,11.025,0.006,16.545,0.006c-0.008,13.359,0.012,26.719-0.013,40.082
	c-5.513-0.02-11.032,0.004-16.545-0.014C116.129,223.813,116.111,210.457,116.117,197.098z"/>
</svg>
